<?xml version="1.0" encoding="utf-8"?>
<!-- created with bpmn-js / http://bpmn.io -->
<!DOCTYPE svg PUBLIC "-//W3C//DTD SVG 1.1//EN" "http://www.w3.org/Graphics/SVG/1.1/DTD/svg11.dtd">
<svg xmlns="http://www.w3.org/2000/svg" xmlns:xlink="http://www.w3.org/1999/xlink" width="1181" height="674" viewBox="-103 -76 1181 674" version="1.1"><defs><marker id="sequenceflow-end-white-black-0ygmrzo1keehtm7p1wlbao8bp" viewBox="0 0 20 20" refX="11" refY="10" markerWidth="10" markerHeight="10" orient="auto"><path d="M 1 5 L 11 10 L 1 15 Z" style="fill: black; stroke-width: 1px; stroke-linecap: round; stroke-dasharray: 10000, 1; stroke: black;"/></marker></defs><g class="djs-group"><g class="djs-element djs-shape" data-element-id="Participant_01h191p" style="display: block;" transform="matrix(1 0 0 1 -97 -70)"><g class="djs-visual"><rect x="0" y="0" width="1169" height="662" rx="0" ry="0" style="stroke: black; stroke-width: 2px; fill: white; fill-opacity: 0.95;"/><polyline points="30,0 30,662 " style="fill: none; stroke: black; stroke-width: 2px;"/><text lineHeight="1.2" class="djs-label" style="font-family: Arial, sans-serif; font-size: 12px; font-weight: normal; fill: black;" transform="matrix(-1.83697e-16 -1 1 -1.83697e-16 0 662)"><tspan x="113.109375" y="18.6">Faculdade                                      Terceiros                                                    Aluno</tspan></text></g><rect x="0" y="0" width="1169" height="662" class="djs-hit" style="fill: none; stroke-opacity: 0; stroke: white; stroke-width: 15px;"/><rect x="-6" y="-6" width="1181" height="674" class="djs-outline" style="fill: none;"/></g><g class="djs-children"><g class="djs-group"><g class="djs-element djs-shape" data-element-id="Lane_1si0816" style="display: block;" transform="matrix(1 0 0 1 -67 165)"><g class="djs-visual"><rect x="0" y="0" width="1139" height="206" rx="0" ry="0" style="stroke: black; stroke-width: 2px; fill: white; fill-opacity: 0.35;"/><text lineHeight="1.2" class="djs-label" style="font-family: Arial, sans-serif; font-size: 12px; font-weight: normal; fill: black;" transform="matrix(-1.83697e-16 -1 1 -1.83697e-16 0 206)"><tspan x="36.8125" y="18.6">idwall                    d4sign</tspan></text></g><rect x="0" y="0" width="1139" height="206" class="djs-hit" style="fill: none; stroke-opacity: 0; stroke: white; stroke-width: 15px;"/><rect x="-6" y="-6" width="1151" height="218" class="djs-outline" style="fill: none;"/></g><g class="djs-children"><g class="djs-group"><g class="djs-element djs-shape" data-element-id="Lane_0i6rzxe" style="display: block;" transform="matrix(1 0 0 1 -37 165)"><g class="djs-visual"><rect x="0" y="0" width="1109" height="99" rx="0" ry="0" style="stroke: black; stroke-width: 2px; fill: white; fill-opacity: 0.35;"/><text lineHeight="1.2" class="djs-label" style="font-family: Arial, sans-serif; font-size: 12px; font-weight: normal; fill: black;" transform="matrix(-1.83697e-16 -1 1 -1.83697e-16 0 99)"><tspan x="49.5" y="18.6"/></text></g><rect x="0" y="0" width="1109" height="99" class="djs-hit" style="fill: none; stroke-opacity: 0; stroke: white; stroke-width: 15px;"/><rect x="-6" y="-6" width="1121" height="111" class="djs-outline" style="fill: none;"/></g></g><g class="djs-group"><g class="djs-element djs-shape" data-element-id="Lane_04s8u5k" style="display: block;" transform="matrix(1 0 0 1 -37 264)"><g class="djs-visual"><rect x="0" y="0" width="1109" height="107" rx="0" ry="0" style="stroke: black; stroke-width: 2px; fill: white; fill-opacity: 0.35;"/><text lineHeight="1.2" class="djs-label" style="font-family: Arial, sans-serif; font-size: 12px; font-weight: normal; fill: black;" transform="matrix(-1.83697e-16 -1 1 -1.83697e-16 0 107)"><tspan x="53.5" y="18.6"/></text></g><rect x="0" y="0" width="1109" height="107" class="djs-hit" style="fill: none; stroke-opacity: 0; stroke: white; stroke-width: 15px;"/><rect x="-6" y="-6" width="1121" height="119" class="djs-outline" style="fill: none;"/></g></g></g></g><g class="djs-group"><g class="djs-element djs-shape selected" data-element-id="Lane_1y8x8up" style="display: block;" transform="matrix(1 0 0 1 -67 371)"><g class="djs-visual"><rect x="0" y="0" width="1139" height="221" rx="0" ry="0" style="stroke: black; stroke-width: 2px; fill: white; fill-opacity: 0.35;"/><text lineHeight="1.2" class="djs-label" style="font-family: Arial, sans-serif; font-size: 12px; font-weight: normal; fill: black;" transform="matrix(-1.83697e-16 -1 1 -1.83697e-16 0 221)"><tspan x="110.5" y="18.6"/></text></g><rect x="0" y="0" width="1139" height="221" class="djs-hit" style="fill: none; stroke-opacity: 0; stroke: white; stroke-width: 15px;"/><rect x="-6" y="-6" width="1151" height="233" class="djs-outline" style="fill: none;"/></g><g class="djs-children"/></g><g class="djs-group"><g class="djs-element djs-shape" data-element-id="Lane_1yf06gt" style="display: block;" transform="matrix(1 0 0 1 -67 -70)"><g class="djs-visual"><rect x="0" y="0" width="1139" height="235" rx="0" ry="0" style="stroke: black; stroke-width: 2px; fill: white; fill-opacity: 0.35;"/><text lineHeight="1.2" class="djs-label" style="font-family: Arial, sans-serif; font-size: 12px; font-weight: normal; fill: black;" transform="matrix(-1.83697e-16 -1 1 -1.83697e-16 0 235)"><tspan x="117.5" y="18.6"/></text></g><rect x="0" y="0" width="1139" height="235" class="djs-hit" style="fill: none; stroke-opacity: 0; stroke: white; stroke-width: 15px;"/><rect x="-6" y="-6" width="1151" height="247" class="djs-outline" style="fill: none;"/></g><g class="djs-children"/></g><g class="djs-group"><g class="djs-element djs-shape" data-element-id="TextAnnotation_17u39ck" style="display: block;" transform="matrix(1 0 0 1 23 538)"><g class="djs-visual"><rect x="0" y="0" width="100" height="40" rx="0" ry="0" style="stroke: none; stroke-width: 2px; fill: none;"/><path d="m 0, 0 m 10,0 l -10,0 l 0,40 l 10,0" style="fill: none; stroke-width: 2px; stroke: black;"/><text lineHeight="1.2" class="djs-label" style="font-family: Arial, sans-serif; font-size: 12px; font-weight: normal; fill: black;"><tspan x="5" y="15.799999999999999">link para enviar</tspan><tspan x="5" y="30.199999999999996">documentos</tspan></text></g><rect x="0" y="0" width="100" height="40" class="djs-hit" style="fill: none; stroke-opacity: 0; stroke: white; stroke-width: 15px;"/><rect x="-6" y="-6" width="112" height="52" class="djs-outline" style="fill: none;"/></g></g><g class="djs-group"><g class="djs-element djs-connection" data-element-id="SequenceFlow_1lgldes" style="display: block;"><g class="djs-visual"><path d="m  123,-1L208,-1 L208,278 " style="fill: none; stroke-width: 2px; stroke: black; stroke-linejoin: round; marker-end: url('#sequenceflow-end-white-black-0ygmrzo1keehtm7p1wlbao8bp');"/></g><polyline points="123,-1 208,-1 208,278 " class="djs-hit" style="fill: none; stroke-opacity: 0; stroke: white; stroke-width: 15px;"/><rect x="117" y="-7" width="97" height="291" class="djs-outline" style="fill: none;"/></g></g><g class="djs-group"><g class="djs-element djs-connection" data-element-id="SequenceFlow_0kmyw8e" style="display: block;"><g class="djs-visual"><path d="m  73,429L73,39 " style="fill: none; stroke-width: 2px; stroke: black; stroke-linejoin: round; marker-end: url('#sequenceflow-end-white-black-0ygmrzo1keehtm7p1wlbao8bp');"/></g><polyline points="73,429 73,39 " class="djs-hit" style="fill: none; stroke-opacity: 0; stroke: white; stroke-width: 15px;"/><rect x="67" y="33" width="12" height="402" class="djs-outline" style="fill: none;"/></g></g><g class="djs-group"><g class="djs-element djs-connection" data-element-id="SequenceFlow_0k0so8x" style="display: block;"><g class="djs-visual"><path d="m  258,318L313,318 " style="fill: none; stroke-width: 2px; stroke: black; stroke-linejoin: round; marker-end: url('#sequenceflow-end-white-black-0ygmrzo1keehtm7p1wlbao8bp');"/></g><polyline points="258,318 313,318 " class="djs-hit" style="fill: none; stroke-opacity: 0; stroke: white; stroke-width: 15px;"/><rect x="252" y="312" width="67" height="12" class="djs-outline" style="fill: none;"/></g></g><g class="djs-group"><g class="djs-element djs-connection" data-element-id="SequenceFlow_1gcs6vv" style="display: block;"><g class="djs-visual"><path d="m  338,293L338,-20 L123,-20 " style="fill: none; stroke-width: 2px; stroke: black; stroke-linejoin: round; marker-end: url('#sequenceflow-end-white-black-0ygmrzo1keehtm7p1wlbao8bp');"/></g><polyline points="338,293 338,-20 123,-20 " class="djs-hit" style="fill: none; stroke-opacity: 0; stroke: white; stroke-width: 15px;"/><rect x="117" y="-26" width="227" height="325" class="djs-outline" style="fill: none;"/></g></g><g class="djs-group"><g class="djs-element djs-connection" data-element-id="SequenceFlow_03830r5" style="display: block;"><g class="djs-visual"><path d="m  338,343L338,406 L375,406 L375,480 " style="fill: none; stroke-width: 2px; stroke: black; stroke-linejoin: round; marker-end: url('#sequenceflow-end-white-black-0ygmrzo1keehtm7p1wlbao8bp');"/></g><polyline points="338,343 338,406 375,406 375,480 " class="djs-hit" style="fill: none; stroke-opacity: 0; stroke: white; stroke-width: 15px;"/><rect x="332" y="337" width="49" height="149" class="djs-outline" style="fill: none;"/></g></g><g class="djs-group"><g class="djs-element djs-connection" data-element-id="SequenceFlow_13w980e" style="display: block;"><g class="djs-visual"><path d="m  -17,469L23,469 " style="fill: none; stroke-width: 2px; stroke: black; stroke-linejoin: round; marker-end: url('#sequenceflow-end-white-black-0ygmrzo1keehtm7p1wlbao8bp');"/></g><polyline points="-17,469 23,469 " class="djs-hit" style="fill: none; stroke-opacity: 0; stroke: white; stroke-width: 15px;"/><rect x="-23" y="463" width="52" height="12" class="djs-outline" style="fill: none;"/></g></g><g class="djs-group"><g class="djs-element djs-connection" data-element-id="SequenceFlow_16qlhjx" style="display: block;"><g class="djs-visual"><path d="m  519,82L519,129 L638,129 L638,176 " style="fill: none; stroke-width: 2px; stroke: black; stroke-linejoin: round; marker-end: url('#sequenceflow-end-white-black-0ygmrzo1keehtm7p1wlbao8bp');"/></g><polyline points="519,82 519,129 638,129 638,176 " class="djs-hit" style="fill: none; stroke-opacity: 0; stroke: white; stroke-width: 15px;"/><rect x="513" y="76" width="131" height="106" class="djs-outline" style="fill: none;"/></g></g><g class="djs-group"><g class="djs-element djs-connection" data-element-id="SequenceFlow_1m0cm47" style="display: block;"><g class="djs-visual"><path d="m  425,520L447,520 L447,42 L469,42 " style="fill: none; stroke-width: 2px; stroke: black; stroke-linejoin: round; marker-end: url('#sequenceflow-end-white-black-0ygmrzo1keehtm7p1wlbao8bp');"/></g><polyline points="425,520 447,520 447,42 469,42 " class="djs-hit" style="fill: none; stroke-opacity: 0; stroke: white; stroke-width: 15px;"/><rect x="419" y="36" width="56" height="490" class="djs-outline" style="fill: none;"/></g></g><g class="djs-group"><g class="djs-element djs-connection" data-element-id="SequenceFlow_0oqw5hq" style="display: block;"><g class="djs-visual"><path d="m  688,216L731,216 " style="fill: none; stroke-width: 2px; stroke: black; stroke-linejoin: round; marker-end: url('#sequenceflow-end-white-black-0ygmrzo1keehtm7p1wlbao8bp');"/></g><polyline points="688,216 731,216 " class="djs-hit" style="fill: none; stroke-opacity: 0; stroke: white; stroke-width: 15px;"/><rect x="682" y="210" width="55" height="12" class="djs-outline" style="fill: none;"/></g></g><g class="djs-group"><g class="djs-element djs-connection" data-element-id="SequenceFlow_1voc288" style="display: block;"><g class="djs-visual"><path d="m  756,191L756,42 L569,42 " style="fill: none; stroke-width: 2px; stroke: black; stroke-linejoin: round; marker-end: url('#sequenceflow-end-white-black-0ygmrzo1keehtm7p1wlbao8bp');"/></g><polyline points="756,191 756,42 569,42 " class="djs-hit" style="fill: none; stroke-opacity: 0; stroke: white; stroke-width: 15px;"/><rect x="563" y="36" width="199" height="161" class="djs-outline" style="fill: none;"/></g></g><g class="djs-group"><g class="djs-element djs-connection" data-element-id="SequenceFlow_0ltqugv" style="display: block;"><g class="djs-visual"><path d="m  756,241L756,314 L553,314 L553,449 " style="fill: none; stroke-width: 2px; stroke: black; stroke-linejoin: round; marker-end: url('#sequenceflow-end-white-black-0ygmrzo1keehtm7p1wlbao8bp');"/></g><polyline points="756,241 756,314 553,314 553,449 " class="djs-hit" style="fill: none; stroke-opacity: 0; stroke: white; stroke-width: 15px;"/><rect x="547" y="235" width="215" height="220" class="djs-outline" style="fill: none;"/></g></g><g class="djs-group"><g class="djs-element djs-connection" data-element-id="SequenceFlow_0oi5v0k" style="display: block;"><g class="djs-visual"><path d="m  603,489L629,489 L629,541 L693,541 " style="fill: none; stroke-width: 2px; stroke: black; stroke-linejoin: round; marker-end: url('#sequenceflow-end-white-black-0ygmrzo1keehtm7p1wlbao8bp');"/></g><polyline points="603,489 629,489 629,541 693,541 " class="djs-hit" style="fill: none; stroke-opacity: 0; stroke: white; stroke-width: 15px;"/><rect x="597" y="483" width="102" height="64" class="djs-outline" style="fill: none;"/></g></g><g class="djs-group"><g class="djs-element djs-connection" data-element-id="SequenceFlow_1i555k1" style="display: block;"><g class="djs-visual"><path d="m  987,498L1013,498 " style="fill: none; stroke-width: 2px; stroke: black; stroke-linejoin: round; marker-end: url('#sequenceflow-end-white-black-0ygmrzo1keehtm7p1wlbao8bp');"/></g><polyline points="987,498 1013,498 " class="djs-hit" style="fill: none; stroke-opacity: 0; stroke: white; stroke-width: 15px;"/><rect x="981" y="492" width="38" height="12" class="djs-outline" style="fill: none;"/></g></g><g class="djs-group"><g class="djs-element djs-connection" data-element-id="SequenceFlow_0hjglni" style="display: block;"><g class="djs-visual"><path d="m  743,501L743,469 " style="fill: none; stroke-width: 2px; stroke: black; stroke-linejoin: round; marker-end: url('#sequenceflow-end-white-black-0ygmrzo1keehtm7p1wlbao8bp');"/></g><polyline points="743,501 743,469 " class="djs-hit" style="fill: none; stroke-opacity: 0; stroke: white; stroke-width: 15px;"/><rect x="737" y="463" width="12" height="44" class="djs-outline" style="fill: none;"/></g></g><g class="djs-group"><g class="djs-element djs-connection" data-element-id="SequenceFlow_0c9o880" style="display: block;"><g class="djs-visual"><path d="m  793,429L840,429 L840,498 L887,498 " style="fill: none; stroke-width: 2px; stroke: black; stroke-linejoin: round; marker-end: url('#sequenceflow-end-white-black-0ygmrzo1keehtm7p1wlbao8bp');"/></g><polyline points="793,429 840,429 840,498 887,498 " class="djs-hit" style="fill: none; stroke-opacity: 0; stroke: white; stroke-width: 15px;"/><rect x="787" y="423" width="106" height="81" class="djs-outline" style="fill: none;"/></g></g><g class="djs-group"><g class="djs-element djs-shape" data-element-id="Task_08lkqrz" style="display: block;" transform="matrix(1 0 0 1 23 -41)"><g class="djs-visual"><rect x="0" y="0" width="100" height="80" rx="10" ry="10" style="stroke: black; stroke-width: 2px; fill: white; fill-opacity: 0.95;"/><text lineHeight="1.2" class="djs-label" style="font-family: Arial, sans-serif; font-size: 12px; font-weight: normal; fill: black;"><tspan x="34.828125" y="29.200000000000003">Envia </tspan><tspan x="12.1484375" y="43.6">documentos e </tspan><tspan x="6.640625" y="58">foto de si no link</tspan></text></g><rect x="0" y="0" width="100" height="80" class="djs-hit" style="fill: none; stroke-opacity: 0; stroke: white; stroke-width: 15px;"/><rect x="-6" y="-6" width="112" height="92" class="djs-outline" style="fill: none;"/></g></g><g class="djs-group"><g class="djs-element djs-shape" data-element-id="Task_0jd501f" style="display: block;" transform="matrix(1 0 0 1 588 176)"><g class="djs-visual"><rect x="0" y="0" width="100" height="80" rx="10" ry="10" style="stroke: black; stroke-width: 2px; fill: white; fill-opacity: 0.95;"/><text lineHeight="1.2" class="djs-label" style="font-family: Arial, sans-serif; font-size: 12px; font-weight: normal; fill: black;"><tspan x="33.609375" y="29.200000000000003">Valida </tspan><tspan x="13.8203125" y="43.6">assinatura de </tspan><tspan x="28.1640625" y="58">contrato</tspan></text></g><rect x="0" y="0" width="100" height="80" class="djs-hit" style="fill: none; stroke-opacity: 0; stroke: white; stroke-width: 15px;"/><rect x="-6" y="-6" width="112" height="92" class="djs-outline" style="fill: none;"/></g></g><g class="djs-group"><g class="djs-element djs-shape" data-element-id="Task_1g1xh6k" style="display: block;" transform="matrix(1 0 0 1 325 480)"><g class="djs-visual"><rect x="0" y="0" width="100" height="80" rx="10" ry="10" style="stroke: black; stroke-width: 2px; fill: white; fill-opacity: 0.95;"/><text lineHeight="1.2" class="djs-label" style="font-family: Arial, sans-serif; font-size: 12px; font-weight: normal; fill: black;"><tspan x="15.8203125" y="36.4">Envia link de </tspan><tspan x="28.1640625" y="50.8">contrato</tspan></text></g><rect x="0" y="0" width="100" height="80" class="djs-hit" style="fill: none; stroke-opacity: 0; stroke: white; stroke-width: 15px;"/><rect x="-6" y="-6" width="112" height="92" class="djs-outline" style="fill: none;"/></g></g><g class="djs-group"><g class="djs-element djs-shape" data-element-id="Task_0fcqtbr" style="display: block;" transform="matrix(1 0 0 1 23 429)"><g class="djs-visual"><rect x="0" y="0" width="100" height="80" rx="10" ry="10" style="stroke: black; stroke-width: 2px; fill: white; fill-opacity: 0.95;"/><text lineHeight="1.2" class="djs-label" style="font-family: Arial, sans-serif; font-size: 12px; font-weight: normal; fill: black;"><tspan x="25.65625" y="29.200000000000003">Entra em </tspan><tspan x="17.3203125" y="43.6">contato com </tspan><tspan x="24.8203125" y="58">aprovado</tspan></text></g><rect x="0" y="0" width="100" height="80" class="djs-hit" style="fill: none; stroke-opacity: 0; stroke: white; stroke-width: 15px;"/><rect x="-6" y="-6" width="112" height="92" class="djs-outline" style="fill: none;"/></g></g><g class="djs-group"><g class="djs-element djs-shape" data-element-id="StartEvent_1w3a3iu" style="display: block;" transform="matrix(1 0 0 1 -53 451)"><g class="djs-visual"><circle cx="18" cy="18" r="18" style="stroke: black; stroke-width: 2px; fill: white; fill-opacity: 0.95;"/></g><rect x="0" y="0" width="36" height="36" class="djs-hit" style="fill: none; stroke-opacity: 0; stroke: white; stroke-width: 15px;"/><rect x="-6" y="-6" width="48" height="48" class="djs-outline" style="fill: none;"/></g></g><g class="djs-group"><g class="djs-element djs-shape" data-element-id="Task_00718bx" style="display: block;" transform="matrix(1 0 0 1 469 2)"><g class="djs-visual"><rect x="0" y="0" width="100" height="80" rx="10" ry="10" style="stroke: black; stroke-width: 2px; fill: white; fill-opacity: 0.95;"/><text lineHeight="1.2" class="djs-label" style="font-family: Arial, sans-serif; font-size: 12px; font-weight: normal; fill: black;"><tspan x="8.984375" y="43.599999999999994">Assina contrato</tspan></text></g><rect x="0" y="0" width="100" height="80" class="djs-hit" style="fill: none; stroke-opacity: 0; stroke: white; stroke-width: 15px;"/><rect x="-6" y="-6" width="112" height="92" class="djs-outline" style="fill: none;"/></g></g><g class="djs-group"><g class="djs-element djs-shape" data-element-id="ExclusiveGateway_02jj9ry" style="display: block;" transform="matrix(1 0 0 1 731 191)"><g class="djs-visual"><polygon points="25,0 50,25 25,50 0,25" style="stroke: black; stroke-width: 2px; fill: white; fill-opacity: 0.95;"/><path d="m 16,15 7.42857142857143,9.714285714285715 -7.42857142857143,9.714285714285715 3.428571428571429,0 5.714285714285715,-7.464228571428572 5.714285714285715,7.464228571428572 3.428571428571429,0 -7.42857142857143,-9.714285714285715 7.42857142857143,-9.714285714285715 -3.428571428571429,0 -5.714285714285715,7.464228571428572 -5.714285714285715,-7.464228571428572 -3.428571428571429,0 z" style="fill: black; stroke-width: 1px; stroke: black;"/></g><rect x="0" y="0" width="50" height="50" class="djs-hit" style="fill: none; stroke-opacity: 0; stroke: white; stroke-width: 15px;"/><rect x="-6" y="-6" width="62" height="62" class="djs-outline" style="fill: none;"/></g></g><g class="djs-group"><g class="djs-element djs-shape" data-element-id="Task_08rbazj" style="display: block;" transform="matrix(1 0 0 1 158 278)"><g class="djs-visual"><rect x="0" y="0" width="100" height="80" rx="10" ry="10" style="stroke: black; stroke-width: 2px; fill: white; fill-opacity: 0.95;"/><text lineHeight="1.2" class="djs-label" style="font-family: Arial, sans-serif; font-size: 12px; font-weight: normal; fill: black;"><tspan x="33.609375" y="36.4">Valida </tspan><tspan x="17.3203125" y="50.8">documentos</tspan></text></g><rect x="0" y="0" width="100" height="80" class="djs-hit" style="fill: none; stroke-opacity: 0; stroke: white; stroke-width: 15px;"/><rect x="-6" y="-6" width="112" height="92" class="djs-outline" style="fill: none;"/></g></g><g class="djs-group"><g class="djs-element djs-shape" data-element-id="ExclusiveGateway_1ur2d7i" style="display: block;" transform="matrix(1 0 0 1 313 293)"><g class="djs-visual"><polygon points="25,0 50,25 25,50 0,25" style="stroke: black; stroke-width: 2px; fill: white; fill-opacity: 0.95;"/><path d="m 16,15 7.42857142857143,9.714285714285715 -7.42857142857143,9.714285714285715 3.428571428571429,0 5.714285714285715,-7.464228571428572 5.714285714285715,7.464228571428572 3.428571428571429,0 -7.42857142857143,-9.714285714285715 7.42857142857143,-9.714285714285715 -3.428571428571429,0 -5.714285714285715,7.464228571428572 -5.714285714285715,-7.464228571428572 -3.428571428571429,0 z" style="fill: black; stroke-width: 1px; stroke: black;"/></g><rect x="0" y="0" width="50" height="50" class="djs-hit" style="fill: none; stroke-opacity: 0; stroke: white; stroke-width: 15px;"/><rect x="-6" y="-6" width="62" height="62" class="djs-outline" style="fill: none;"/></g></g><g class="djs-group"><g class="djs-element djs-shape" data-element-id="Task_1ln4hcv" style="display: block;" transform="matrix(1 0 0 1 503 449)"><g class="djs-visual"><rect x="0" y="0" width="100" height="80" rx="10" ry="10" style="stroke: black; stroke-width: 2px; fill: white; fill-opacity: 0.95;"/><text lineHeight="1.2" class="djs-label" style="font-family: Arial, sans-serif; font-size: 12px; font-weight: normal; fill: black;"><tspan x="9.1484375" y="43.599999999999994">Cadastra aluno</tspan></text></g><rect x="0" y="0" width="100" height="80" class="djs-hit" style="fill: none; stroke-opacity: 0; stroke: white; stroke-width: 15px;"/><rect x="-6" y="-6" width="112" height="92" class="djs-outline" style="fill: none;"/></g></g><g class="djs-group"><g class="djs-element djs-shape" data-element-id="EndEvent_0uodhi0" style="display: block;" transform="matrix(1 0 0 1 1013 480)"><g class="djs-visual"><circle cx="18" cy="18" r="18" style="stroke: black; stroke-width: 4px; fill: white; fill-opacity: 0.95;"/></g><rect x="0" y="0" width="36" height="36" class="djs-hit" style="fill: none; stroke-opacity: 0; stroke: white; stroke-width: 15px;"/><rect x="-6" y="-6" width="48" height="48" class="djs-outline" style="fill: none;"/></g></g><g class="djs-group"><g class="djs-element djs-shape" data-element-id="Task_1givodl" style="display: block;" transform="matrix(1 0 0 1 887 458)"><g class="djs-visual"><rect x="0" y="0" width="100" height="80" rx="10" ry="10" style="stroke: black; stroke-width: 2px; fill: white; fill-opacity: 0.95;"/><text lineHeight="1.2" class="djs-label" style="font-family: Arial, sans-serif; font-size: 12px; font-weight: normal; fill: black;"><tspan x="16.15625" y="22">Disponibiliza </tspan><tspan x="8.8203125" y="36.4">informações de </tspan><tspan x="21.1484375" y="50.8">entrada ao </tspan><tspan x="35.15625" y="65.19999999999999">aluno</tspan></text></g><rect x="0" y="0" width="100" height="80" class="djs-hit" style="fill: none; stroke-opacity: 0; stroke: white; stroke-width: 15px;"/><rect x="-6" y="-6" width="112" height="92" class="djs-outline" style="fill: none;"/></g></g><g class="djs-group"><g class="djs-element djs-shape" data-element-id="Task_1l14a2w" style="display: block;" transform="matrix(1 0 0 1 693 501)"><g class="djs-visual"><rect x="0" y="0" width="100" height="80" rx="10" ry="10" style="stroke: black; stroke-width: 2px; fill: white; fill-opacity: 0.95;"/><text lineHeight="1.2" class="djs-label" style="font-family: Arial, sans-serif; font-size: 12px; font-weight: normal; fill: black;"><tspan x="20.828125" y="29.200000000000003">Criação de </tspan><tspan x="15.484375" y="43.6">qrcode, login </tspan><tspan x="10.8125" y="58">moodle + totvs</tspan></text></g><rect x="0" y="0" width="100" height="80" class="djs-hit" style="fill: none; stroke-opacity: 0; stroke: white; stroke-width: 15px;"/><rect x="-6" y="-6" width="112" height="92" class="djs-outline" style="fill: none;"/></g></g><g class="djs-group"><g class="djs-element djs-shape" data-element-id="Task_1icyyjt" style="display: block;" transform="matrix(1 0 0 1 693 389)"><g class="djs-visual"><rect x="0" y="0" width="100" height="80" rx="10" ry="10" style="stroke: black; stroke-width: 2px; fill: white; fill-opacity: 0.95;"/><text lineHeight="1.2" class="djs-label" style="font-family: Arial, sans-serif; font-size: 12px; font-weight: normal; fill: black;"><tspan x="12.484375" y="36.4">Solicitação de </tspan><tspan x="16.1484375" y="50.8">bilhete único</tspan></text></g><rect x="0" y="0" width="100" height="80" class="djs-hit" style="fill: none; stroke-opacity: 0; stroke: white; stroke-width: 15px;"/><rect x="-6" y="-6" width="112" height="92" class="djs-outline" style="fill: none;"/></g></g><g class="djs-group"><g class="djs-element djs-connection" data-element-id="Association_1b4g4p4" style="display: block;"><g class="djs-visual"><polyline points="73,509 73,538 " style="fill: none; stroke: black; stroke-width: 2px; stroke-dasharray: 0.5, 5; stroke-linecap: round; stroke-linejoin: round;"/></g><polyline points="73,509 73,538 " class="djs-hit" style="fill: none; stroke-opacity: 0; stroke: white; stroke-width: 15px;"/><rect x="67" y="503" width="12" height="41" class="djs-outline" style="fill: none;"/></g></g></g></g><g class="djs-group"><g class="djs-element djs-shape" data-element-id="SequenceFlow_1voc288_label" style="display: block;" transform="matrix(1 0 0 1 633 28)"><g class="djs-visual"><text lineHeight="1.2" class="djs-label" style="font-family: Arial, sans-serif; font-size: 11px; font-weight: normal; fill: black;"><tspan x="0" y="9.899999999999999">necessário </tspan><tspan x="8.8125" y="23.099999999999998">refazer</tspan></text></g><rect x="0" y="0" width="54" height="27" class="djs-hit" style="fill: none; stroke-opacity: 0; stroke: white; stroke-width: 15px;"/><rect x="-6" y="-6" width="66" height="39" class="djs-outline" style="fill: none;"/></g></g><g class="djs-group"><g class="djs-element djs-shape" data-element-id="SequenceFlow_1gcs6vv_label" style="display: block;" transform="matrix(1 0 0 1 218 -34)"><g class="djs-visual"><text lineHeight="1.2" class="djs-label" style="font-family: Arial, sans-serif; font-size: 11px; font-weight: normal; fill: black;"><tspan x="0" y="9.899999999999999">documentos </tspan><tspan x="8.5625" y="23.099999999999998">invalidos</tspan></text></g><rect x="0" y="0" width="61" height="27" class="djs-hit" style="fill: none; stroke-opacity: 0; stroke: white; stroke-width: 15px;"/><rect x="-6" y="-6" width="73" height="39" class="djs-outline" style="fill: none;"/></g></g><g class="djs-group"><g class="djs-element djs-shape" data-element-id="SequenceFlow_03830r5_label" style="display: block;" transform="matrix(1 0 0 1 344 378)"><g class="djs-visual"><text lineHeight="1.2" class="djs-label" style="font-family: Arial, sans-serif; font-size: 11px; font-weight: normal; fill: black;"><tspan x="0" y="9.899999999999999">documentos </tspan><tspan x="7.2265625" y="23.099999999999998">validados</tspan></text></g><rect x="0" y="0" width="61" height="27" class="djs-hit" style="fill: none; stroke-opacity: 0; stroke: white; stroke-width: 15px;"/><rect x="-6" y="-6" width="73" height="39" class="djs-outline" style="fill: none;"/></g></g><g class="djs-group"><g class="djs-element djs-shape" data-element-id="SequenceFlow_0ltqugv_label" style="display: block;" transform="matrix(1 0 0 1 628 296)"><g class="djs-visual"><text lineHeight="1.2" class="djs-label" style="font-family: Arial, sans-serif; font-size: 11px; font-weight: normal; fill: black;"><tspan x="0" y="9.899999999999999">contrato ok</tspan></text></g><rect x="0" y="0" width="55" height="14" class="djs-hit" style="fill: none; stroke-opacity: 0; stroke: white; stroke-width: 15px;"/><rect x="-6" y="-6" width="67" height="26" class="djs-outline" style="fill: none;"/></g></g><g class="djs-drag-group" style="pointer-events: none;" transform="matrix(1 0 0 1 -18 99)"/><g class="djs-drag-group" style="pointer-events: none;" transform="matrix(1 0 0 1 -25 178)"/><g class="djs-drag-group" style="pointer-events: none;" transform="matrix(1 0 0 1 -75 8)"/><g class="djs-drag-group" style="pointer-events: none;" transform="matrix(1 0 0 1 0 -207)"/><g class="djs-drag-group" style="pointer-events: none;" transform="matrix(1 0 0 1 46 -28)"/><g class="djs-drag-group" style="pointer-events: none;" transform="matrix(1 0 0 1 5 0)"/><g class="djs-drag-group" style="pointer-events: none;" transform="matrix(1 0 0 1 7 53)"/><g class="djs-drag-group" style="pointer-events: none;" transform="matrix(1 0 0 1 -8 -1)"/><g class="djs-drag-group" style="pointer-events: none;" transform="matrix(1 0 0 1 8 4)"/><g class="djs-drag-group" style="pointer-events: none;" transform="matrix(1 0 0 1 -105 -155)"/><g class="djs-drag-group" style="pointer-events: none;" transform="matrix(1 0 0 1 0 39)"/><g class="djs-drag-group" style="pointer-events: none;" transform="matrix(1 0 0 1 51 29)"/><g class="djs-drag-group" style="pointer-events: none;" transform="matrix(1 0 0 1 -49 -25)"/><g class="djs-drag-group" style="pointer-events: none;" transform="matrix(1 0 0 1 0 18)"/><g class="djs-drag-group" style="pointer-events: none;" transform="matrix(1 0 0 1 8 -13)"/><g class="djs-drag-group" style="pointer-events: none;" transform="matrix(1 0 0 1 8 1)"/><g class="djs-drag-group" style="pointer-events: none;" transform="matrix(1 0 0 1 78 -1)"/><g class="djs-drag-group" style="pointer-events: none;" transform="matrix(1 0 0 1 31 13)"/><g class="djs-drag-group" style="pointer-events: none;" transform="matrix(1 0 0 1 -5 29)"/><g class="djs-drag-group" style="pointer-events: none;" transform="matrix(1 0 0 1 22 -5)"/><g class="djs-drag-group" style="pointer-events: none;" transform="matrix(1 0 0 1 0 -11)"/><g class="djs-drag-group" style="pointer-events: none;" transform="matrix(1 0 0 1 0 0)"/><g class="djs-drag-group" style="pointer-events: none;" transform="matrix(1 0 0 1 0 18)"/><g class="djs-drag-group" style="pointer-events: none;" transform="matrix(1 0 0 1 0 58)"/><g class="djs-drag-group" style="pointer-events: none;" transform="matrix(1 0 0 1 0 66)"/><g class="djs-drag-group" style="pointer-events: none;" transform="matrix(1 0 0 1 0 71)"/><g class="djs-drag-group" style="pointer-events: none;" transform="matrix(1 0 0 1 0 67)"/><g class="djs-drag-group" style="pointer-events: none;" transform="matrix(1 0 0 1 0 64)"/><g class="djs-drag-group" style="pointer-events: none;" transform="matrix(1 0 0 1 -2 64)"/><g class="djs-drag-group" style="pointer-events: none;" transform="matrix(1 0 0 1 0 -53)"/><g class="djs-drag-group" style="pointer-events: none;" transform="matrix(1 0 0 1 -8 15)"/><g class="djs-drag-group" style="pointer-events: none;" transform="matrix(1 0 0 1 8 42)"/><g class="djs-drag-group" style="pointer-events: none;" transform="matrix(1 0 0 1 0 -56)"/><g class="djs-drag-group" style="pointer-events: none;" transform="matrix(1 0 0 1 -111 -86)"/><g class="djs-drag-group" style="pointer-events: none;" transform="matrix(1 0 0 1 0 0)"/><g class="djs-drag-group" style="pointer-events: none;" transform="matrix(1 0 0 1 1 7)"/><g class="djs-drag-group" style="pointer-events: none;" transform="matrix(1 0 0 1 0 0)"/><g class="djs-drag-group" style="pointer-events: none;" transform="matrix(1 0 0 1 0 7)"/><g class="djs-drag-group" style="pointer-events: none;" transform="matrix(1 0 0 1 -26 -22)"/><g class="djs-drag-group" style="pointer-events: none;" transform="matrix(1 0 0 1 29 0)"/><g class="djs-drag-group" style="pointer-events: none;" transform="matrix(1 0 0 1 -31 0)"/><g class="djs-drag-group" style="pointer-events: none;" transform="matrix(1 0 0 1 18 0)"/><g class="djs-drag-group" style="pointer-events: none;" transform="matrix(1 0 0 1 -18 0)"/><g class="djs-drag-group" style="pointer-events: none;" transform="matrix(1 0 0 1 17 0)"/><g class="djs-drag-group" style="pointer-events: none;" transform="matrix(1 0 0 1 0 32)"/><g class="djs-drag-group" style="pointer-events: none;" transform="matrix(1 0 0 1 -47 36)"/><g class="djs-drag-group" style="pointer-events: none;" transform="matrix(1 0 0 1 -69 0)"/><g class="djs-drag-group" style="pointer-events: none;" transform="matrix(1 0 0 1 9 67)"/><g class="djs-drag-group" style="pointer-events: none;" transform="matrix(1 0 0 1 5 20)"/><g class="djs-drag-group" style="pointer-events: none;" transform="matrix(1 0 0 1 -13 9)"/><g class="djs-drag-group" style="pointer-events: none;" transform="matrix(1 0 0 1 5 0)"/><g class="djs-drag-group" style="pointer-events: none;" transform="matrix(1 0 0 1 32 0)"/><g class="djs-drag-group" style="pointer-events: none;" transform="matrix(1 0 0 1 39 0)"/><g class="djs-drag-group" style="pointer-events: none;" transform="matrix(1 0 0 1 -30 12)"/></svg>